PathFileType	4	(X/Y/Z)	./resultDataOpenSim/trcMotMarkerGrf/sub06/qtm-12-05.trc
DataRate	CameraRate	NumFrames	NumMarkers	Units	OrigDataRate	OrigDataStartFrame	OrigNumFrames
250.000000	250.000000	14	24	m	250.000000	388	517
Frame#	Time	L.Toe.Tip			R.Toe.Tip			L.Ankle.Lat			R.Ankle.Lat			L.Ankle.Med			R.Ankle.Med			L.Heel			R.Heel			L.Knee.Lat			R.Knee.Lat			L.Knee.Med			R.Knee.Med			L.Thigh.Upper			R.Thigh.Upper			L.ASIS			R.ASIS			V.Sacral			L.Acromium			R.Acromium			C7			L.Elbow			R.Elbow			L.Wrist.Lat			R.Wrist.Lat
		X1	Y1	Z1	X2	Y2	Z2	X3	Y3	Z3	X4	Y4	Z4	X5	Y5	Z5	X6	Y6	Z6	X7	Y7	Z7	X8	Y8	Z8	X9	Y9	Z9	X10	Y10	Z10	X11	Y11	Z11	X12	Y12	Z12	X13	Y13	Z13	X14	Y14	Z14	X15	Y15	Z15	X16	Y16	Z16	X17	Y17	Z17	X18	Y18	Z18	X19	Y19	Z19	X20	Y20	Z20	X21	Y21	Z21	X22	Y22	Z22	X23	Y23	Z23	X24	Y24	Z24

388	1.548	1.5179289	0.1214516	-0.098932432	0.896169	0.034408301	0.062117316	1.3908467	0.10550624	-0.11830119	0.77254516	0.093642384	0.087993545	1.3895408	0.12003438	-0.034872805	0.80101235	0.11280136	0.0031355092	1.3364764	0.04879322	-0.072862499	0.71695504	0.090907758	0.027782521	1.2963321	0.46323616	-0.11829135	0.95534451	0.44291793	0.12232014	1.2871451	0.45671928	0.0041594506	0.93823364	0.44154465	-0.0092016699	1.117849	0.81361327	-0.16195393	1.0416524	0.7960348	0.17608247	1.1766426	0.86075389	-0.1072085	1.1510213	0.85071542	0.14180605	0.97840695	0.92548236	0.0045791384	1.0715811	1.3410192	-0.16560749	1.113824	1.3283824	0.19149453	1.015142	1.3678323	0.022806934	0.94560786	1.0556226	-0.21150834	1.1645041	1.01577	0.29129748	1.0024635	0.82711279	-0.27699079	1.4037671	1.0259929	0.21098585
389	1.552	1.5303658	0.12498616	-0.097716294	0.89622327	0.034603917	0.062186024	1.4038174	0.10643818	-0.11789337	0.7733637	0.094687642	0.088145149	1.4010534	0.120667	-0.034579163	0.80200963	0.11357084	0.0032323373	1.350245	0.048312189	-0.072896543	0.7177514	0.092570771	0.02793974	1.3029013	0.46148017	-0.11764834	0.95976533	0.44234185	0.1222092	1.2927751	0.4543715	0.0052066838	0.94285295	0.44084844	-0.0093007951	1.1255477	0.81225258	-0.16201507	1.0469712	0.79454297	0.17516504	1.1841463	0.85954084	-0.10697559	1.1572274	0.84914416	0.14187859	0.98550774	0.92412322	0.0038626115	1.0782984	1.339511	-0.16612226	1.1201615	1.3271484	0.19111431	1.0215109	1.3664781	0.022256825	0.9517428	1.0545882	-0.21142138	1.1721195	1.014824	0.29114056	1.006375	0.82582194	-0.27769581	1.4108716	1.0268599	0.20953067
390	1.556	1.5420899	0.12812175	-0.096479758	0.89628491	0.03483014	0.062258051	1.4161114	0.10726716	-0.11739936	0.77423423	0.095771175	0.088356072	1.4124012	0.12135255	-0.034073921	0.80302087	0.11441293	0.0034262052	1.3633321	0.047875388	-0.072769963	0.71861153	0.094331033	0.028156568	1.3096194	0.45988846	-0.11701772	0.96435126	0.44175155	0.12212558	1.2985076	0.45216785	0.0062268149	0.94758821	0.44011989	-0.009363502	1.1332939	0.81088997	-0.1621021	1.052462	0.79309397	0.17437868	1.1916778	0.8583237	-0.10673547	1.1635145	0.84759087	0.14191393	0.99249608	0.92277867	0.0031447629	1.0850664	1.3379888	-0.16665706	1.1265171	1.3259053	0.19070933	1.0279176	1.3651065	0.021676134	0.9579629	1.0535188	-0.21136178	1.1796507	1.0138445	0.29096669	1.0103989	0.82452464	-0.27839684	1.4178973	1.0275988	0.20811596
391	1.56	1.5531382	0.13080546	-0.095321213	0.8963809	0.035013005	0.062320572	1.4277265	0.10792724	-0.11680735	0.7751605	0.096902885	0.088638889	1.4235118	0.12192035	-0.033418778	0.80406372	0.11533108	0.0037092753	1.3757348	0.047424173	-0.072418734	0.71954212	0.096190999	0.028433112	1.316489	0.45848087	-0.11639529	0.9691216	0.44115252	0.12207909	1.3040252	0.45007213	0.0071863845	0.95244658	0.43935942	-0.0093850201	1.141081	0.80953176	-0.16221266	1.0582005	0.79174427	0.17378666	1.1992261	0.85709721	-0.10649259	1.1698551	0.84604485	0.14191685	0.99944444	0.92144267	0.0024170024	1.0918844	1.3364612	-0.16720872	1.1328826	1.3246632	0.19027658	1.0343621	1.3637313	0.021064357	0.964271	1.0524187	-0.21132875	1.1871218	1.0128544	0.29079062	1.0145359	0.8232232	-0.27908652	1.4248458	1.0282054	0.20674968
392	1.564	1.5635903	0.13298863	-0.094293448	0.89651497	0.03512154	0.062382688	1.4386538	0.1083692	-0.11608606	0.77617528	0.098097251	0.088985019	1.4341732	0.12226957	-0.032665232	0.80517798	0.11631564	0.0040388626	1.3873973	0.046921137	-0.071846643	0.72055017	0.098153807	0.028770687	1.3235232	0.45727106	-0.11577364	0.97408475	0.44054755	0.12207757	1.3089606	0.44803433	0.0080453588	0.95743398	0.4385725	-0.0093574839	1.1489017	0.80819405	-0.16233788	1.0642151	0.79051726	0.17342778	1.2067794	0.85585455	-0.10624938	1.1762248	0.84450739	0.14187227	1.0064078	0.92011162	0.0016835574	1.098749	1.3349357	-0.1677811	1.1392559	1.3234297	0.18981601	1.040845	1.3623589	0.020415295	0.97067025	1.0512902	-0.21132235	1.1945374	1.0118604	0.29060998	1.0187946	0.82191874	-0.27976632	1.4317277	1.0286733	0.20543617
393	1.568	1.5735266	0.13465601	-0.093413946	0.89667554	0.035160559	0.06245406	1.4488793	0.10855516	-0.11519867	0.77732293	0.099360229	0.089379243	1.4441899	0.12238095	-0.031849175	0.80639259	0.11735693	0.0043808844	1.3982566	0.046350255	-0.071132337	0.72164135	0.10021989	0.029169959	1.3307426	0.45625324	-0.11514146	0.9792113	0.43992364	0.12212536	1.3133081	0.44605735	0.0087796123	0.96255754	0.43776713	-0.0092791518	1.1567533	0.80689767	-0.16246611	1.0704517	0.78939521	0.17327808	1.2143303	0.85459179	-0.10600832	1.1826115	0.84297905	0.14176823	1.0134019	0.91878798	0.0009523778	1.1056532	1.3334154	-0.16838153	1.1456413	1.3222066	0.18933036	1.0473645	1.3609892	0.019733081	0.97715958	1.0501371	-0.21134344	1.2018841	1.0108559	0.29040868	1.0231795	0.82061643	-0.28044106	1.4385468	1.0290028	0.20417504
394	1.572	1.582963	0.13579397	-0.092659422	0.8968567	0.035137457	0.062535852	1.4584129	0.10844751	-0.11415656	0.77863046	0.10068803	0.089831881	1.4534803	0.12225112	-0.03098979	0.80771011	0.11845478	0.0047442008	1.4082979	0.045674004	-0.070314301	0.7228236	0.10238553	0.029630347	1.3381487	0.45540163	-0.11449197	0.98444784	0.43925825	0.12221948	1.317634	0.44422687	0.0093944442	0.96782336	0.43694827	-0.0091561045	1.1646371	0.80565542	-0.16259444	1.0767502	0.78828905	0.17319485	1.2218809	0.85330754	-0.10577484	1.1890282	0.84145683	0.14162404	1.0204266	0.91747465	0.00022667665	1.1125926	1.3318997	-0.16901546	1.1520402	1.3209937	0.18882695	1.0539145	1.3596234	0.019028002	0.98373705	1.0489652	-0.21139156	1.2091412	1.0098335	0.2901739	1.0276889	0.81932143	-0.28110724	1.4452983	1.0292009	0.20296638
395	1.576	1.5918205	0.13634644	-0.091931739	0.897063	0.035056021	0.06263174	1.4673101	0.10800742	-0.11305628	0.78009606	0.10208128	0.090373912	1.462063	0.12185873	-0.030091207	0.80912225	0.11961448	0.0051600534	1.417543	0.044829336	-0.069379792	0.72411011	0.10464908	0.030150952	1.3456998	0.45467629	-0.11383143	0.98976098	0.43853838	0.12235575	1.3225905	0.44264739	0.0099076988	0.97323108	0.43611698	-0.0089933369	1.1725543	0.80446604	-0.16273413	1.0830098	0.787065	0.17299627	1.2294428	0.85200093	-0.10555672	1.1955138	0.83994193	0.14149583	1.0274878	0.91617228	-0.00049608689	1.1195655	1.3303899	-0.1696828	1.1584461	1.3197932	0.18831256	1.0604913	1.3582643	0.018301383	0.99040301	1.0477809	-0.21146286	1.21629	1.008792	0.28990589	1.0323286	0.81802893	-0.28175166	1.4519786	1.0292726	0.20181205
396	1.58	1.5999948	0.13625249	-0.091100841	0.89730033	0.034932669	0.062751998	1.4756281	0.10721318	-0.11201362	0.78169499	0.10354613	0.091019468	1.4699853	0.12117322	-0.029159179	0.810625	0.12084147	0.0056478543	1.4260098	0.043769683	-0.068344013	0.72551556	0.10701702	0.030731801	1.3533231	0.45402862	-0.1131755	0.99515648	0.43776572	0.12253679	1.3283245	0.44136121	0.010330035	0.97877692	0.43527103	-0.0087879558	1.1804963	0.80332027	-0.16290019	1.0894476	0.7856397	0.17253671	1.2370264	0.85067369	-0.10535982	1.2021182	0.83844364	0.1414483	1.0345986	0.91488037	-0.0012170216	1.1265652	1.3288916	-0.17037464	1.1648524	1.3186078	0.18778553	1.0671026	1.3569102	0.01754692	0.99715797	1.0465887	-0.21155512	1.2233218	1.0077346	0.28961486	1.0371151	0.81672912	-0.28236267	1.4585871	1.0292169	0.20071333
397	1.584	1.60746	0.13551153	-0.09009598	0.89756778	0.034802359	0.062902104	1.4833586	0.10607432	-0.1110569	0.78339111	0.10507692	0.091742185	1.4772782	0.1201691	-0.028209271	0.81222237	0.12213806	0.0062082341	1.4336994	0.042485214	-0.067274874	0.72704816	0.10949967	0.03137404	1.3609505	0.45340883	-0.11254012	1.0006647	0.4369491	0.12276864	1.3345873	0.44034691	0.010670085	0.98446478	0.43440403	-0.0085312179	1.1884428	0.80220931	-0.16310072	1.0966157	0.78403609	0.17163994	1.2446288	0.84933214	-0.10518533	1.2088836	0.83697668	0.14152278	1.0417681	0.91359975	-0.0019299534	1.1335863	1.3274101	-0.17107831	1.1712612	1.3174391	0.18724105	1.0737585	1.3555594	0.016762277	1.0039988	1.0453911	-0.21167181	1.2302394	1.006667	0.28931576	1.0420639	0.81542007	-0.28293895	1.4651216	1.0290274	0.19967079
398	1.588	1.6142652	0.13417711	-0.088913541	0.89785908	0.034697749	0.06307042	1.4904493	0.10461816	-0.11013243	0.78513947	0.10666374	0.092486996	1.4839601	0.11882912	-0.027258542	0.81392557	0.12350149	0.0068333844	1.4406074	0.040985844	-0.066258062	0.72870852	0.11210337	0.032079984	1.3685465	0.45277163	-0.11193617	1.0063181	0.43609471	0.12305688	1.3411498	0.43955281	0.010943183	0.99030651	0.43350687	-0.0082150912	1.1963761	0.80113001	-0.1633403	1.1048274	0.78236883	0.17020787	1.2522398	0.84798223	-0.10503319	1.2158147	0.83555193	0.14170691	1.0489948	0.91233354	-0.0026246988	1.1406347	1.3259463	-0.17178864	1.1776801	1.3162888	0.1866774	1.0804563	1.354215	0.015952756	1.0109165	1.0441896	-0.21181431	1.2370557	1.0055976	0.28902059	1.0471827	0.81410748	-0.28348412	1.4715783	1.0286985	0.19868493
399	1.592	1.6204606	0.13231205	-0.087564356	0.89817006	0.034625797	0.063227321	1.4968801	0.1028704	-0.10919473	0.78690012	0.10832488	0.09320156	1.4900426	0.1171481	-0.026319615	0.8157488	0.12492673	0.0075183942	1.4467356	0.039281154	-0.065362073	0.73050286	0.11482956	0.032851427	1.3761153	0.45207917	-0.11136187	1.0121246	0.4352021	0.12341382	1.3479178	0.4389104	0.011167151	0.99630891	0.43256772	-0.0078375162	1.2042907	0.80008393	-0.16362424	1.1133545	0.78083291	0.16852675	1.2598558	0.84662658	-0.10491008	1.222856	0.8341647	0.14190966	1.056272	0.91108406	-0.0032966434	1.1477208	1.3245022	-0.17250811	1.1841171	1.3151561	0.18609083	1.087181	1.3528788	0.015125623	1.0179027	1.0429841	-0.21197659	1.2437814	1.0045329	0.28872782	1.0524736	0.81279845	-0.28399804	1.4779538	1.0282295	0.19775573
400	1.596	1.6260661	0.12996536	-0.086057966	0.89850355	0.034572429	0.063334066	1.5026751	0.10085146	-0.10824579	0.78867573	0.11010023	0.093844732	1.4955228	0.11513905	-0.025401656	0.81770801	0.12641123	0.0082639636	1.4520993	0.037373751	-0.064634553	0.73245263	0.11767747	0.033683028	1.3836903	0.45130742	-0.11079715	1.0180624	0.43426873	0.12385829	1.3548605	0.43834942	0.011354076	1.0024703	0.43156885	-0.0074008288	1.2121854	0.79907169	-0.16395812	1.1207345	0.77964749	0.16716895	1.2674815	0.84527053	-0.1048285	1.2299333	0.83279892	0.14201816	1.063592	0.90984985	-0.0039507111	1.154844	1.3230863	-0.17323822	1.190583	1.3140376	0.1854777	1.0939223	1.3515475	0.014281946	1.0249614	1.0417759	-0.21215368	1.250403	1.0034699	0.28842438	1.0579372	0.81149787	-0.28448063	1.484251	1.0276259	0.19688442
401	1.6	1.6310851	0.12717054	-0.084421817	0.89886879	0.034522972	0.063368359	1.5078639	0.098577382	-0.10731194	0.79051901	0.11200163	0.094396235	1.5003995	0.11282842	-0.024510146	0.81982346	0.12795521	0.0090699367	1.4567208	0.03526419	-0.064108793	0.73458422	0.12064622	0.034560299	1.3913011	0.4504589	-0.11022614	1.0241244	0.4332878	0.12439007	1.3619647	0.43781987	0.011505755	1.0087917	0.43048886	-0.0069045771	1.2200584	0.79809356	-0.16434258	1.1259267	0.77896042	0.1665392	1.275127	0.84392261	-0.10479323	1.2370228	0.83144673	0.1419979	1.0709438	0.90862885	-0.0045938772	1.1619936	1.3217049	-0.17397743	1.197088	1.3129312	0.18484231	1.1006864	1.3502165	0.01341683	1.0321022	1.0405702	-0.21234919	1.2568713	1.0023982	0.28810529	1.0635765	0.81020527	-0.28493917	1.490479	1.0268912	0.19607008
